<?xml version="1.0" encoding="UTF-8"?>
<svg id="Layer_1" xmlns="http://www.w3.org/2000/svg" baseProfile="tiny" version="1.2" xmlns:xlink="http://www.w3.org/1999/xlink" viewBox="0 0 800 800">
  <!-- Generator: Adobe Illustrator 29.8.7, SVG Export Plug-In . SVG Version: 2.1.1 Build 1)  -->
  <defs>
    <linearGradient id="linear-gradient" x1="508.4" y1="293.5" x2="419.8" y2="409.2" gradientUnits="userSpaceOnUse">
      <stop offset="0" stop-color="#fc805a"/>
      <stop offset=".2" stop-color="#f36a86"/>
      <stop offset=".5" stop-color="#e454b4"/>
      <stop offset=".5" stop-color="#e557ad"/>
      <stop offset=".6" stop-color="#e9629a"/>
      <stop offset=".6" stop-color="#f0737b"/>
      <stop offset=".7" stop-color="#f98a51"/>
      <stop offset=".7" stop-color="#fc9244"/>
      <stop offset=".8" stop-color="#abd64a"/>
      <stop offset="1" stop-color="#00aeef"/>
    </linearGradient>
    <linearGradient id="linear-gradient1" x1="498.1" y1="285.7" x2="409.6" y2="401.3" xlink:href="#linear-gradient"/>
    <linearGradient id="linear-gradient2" x1="507.8" y1="293.1" x2="419.3" y2="408.7" xlink:href="#linear-gradient"/>
    <linearGradient id="linear-gradient3" x1="506.7" y1="292.2" x2="418.1" y2="407.8" xlink:href="#linear-gradient"/>
    <linearGradient id="linear-gradient4" x1="507.6" y1="293" x2="419.1" y2="408.6" xlink:href="#linear-gradient"/>
    <linearGradient id="linear-gradient5" x1="507.2" y1="292.6" x2="418.6" y2="408.2" xlink:href="#linear-gradient"/>
    <linearGradient id="linear-gradient6" x1="503.7" y1="290" x2="415.2" y2="405.6" xlink:href="#linear-gradient"/>
    <linearGradient id="linear-gradient7" x1="506.1" y1="291.8" x2="417.6" y2="407.4" xlink:href="#linear-gradient"/>
    <linearGradient id="linear-gradient8" x1="495.2" y1="283.5" x2="406.7" y2="399.1" xlink:href="#linear-gradient"/>
    <linearGradient id="linear-gradient9" x1="492.1" y1="281.1" x2="403.6" y2="396.7" xlink:href="#linear-gradient"/>
    <linearGradient id="linear-gradient10" x1="497.8" y1="285.5" x2="409.3" y2="401.1" xlink:href="#linear-gradient"/>
    <linearGradient id="linear-gradient11" x1="422" y1="393.4" x2="366.7" y2="465.5" xlink:href="#linear-gradient"/>
    <linearGradient id="linear-gradient12" x1="498.3" y1="285.8" x2="409.7" y2="401.4" xlink:href="#linear-gradient"/>
    <linearGradient id="linear-gradient13" x1="486.4" y1="271.7" x2="407.3" y2="398.4" gradientUnits="userSpaceOnUse">
      <stop offset="0" stop-color="#fc805a"/>
      <stop offset=".2" stop-color="#f36a86"/>
      <stop offset=".5" stop-color="#e454b4"/>
      <stop offset=".5" stop-color="#e557ad"/>
      <stop offset=".6" stop-color="#e9629a"/>
      <stop offset=".6" stop-color="#f0737b"/>
      <stop offset=".7" stop-color="#f98a51"/>
      <stop offset=".7" stop-color="#fc9244"/>
      <stop offset=".8" stop-color="#abd64a"/>
      <stop offset="1" stop-color="#00aeef"/>
    </linearGradient>
    <linearGradient id="linear-gradient14" x1="302.3" y1="286.6" x2="398" y2="424.6" xlink:href="#linear-gradient"/>
    <linearGradient id="linear-gradient15" x1="299.4" y1="288.5" x2="395.2" y2="426.5" xlink:href="#linear-gradient"/>
    <linearGradient id="linear-gradient16" x1="299.3" y1="288.6" x2="395" y2="426.7" xlink:href="#linear-gradient"/>
    <linearGradient id="linear-gradient17" x1="298.4" y1="289.2" x2="394.2" y2="427.2" xlink:href="#linear-gradient"/>
    <linearGradient id="linear-gradient18" x1="304.4" y1="285.1" x2="400.1" y2="423.1" xlink:href="#linear-gradient"/>
    <linearGradient id="linear-gradient19" x1="320.8" y1="273.7" x2="416.5" y2="411.7" xlink:href="#linear-gradient"/>
    <linearGradient id="linear-gradient20" x1="318.9" y1="275" x2="414.7" y2="413" xlink:href="#linear-gradient"/>
    <linearGradient id="linear-gradient21" x1="304.1" y1="285.3" x2="399.8" y2="423.3" xlink:href="#linear-gradient"/>
    <linearGradient id="linear-gradient22" x1="307.4" y1="283" x2="403.2" y2="421" xlink:href="#linear-gradient"/>
    <linearGradient id="linear-gradient23" x1="297.7" y1="289.7" x2="393.4" y2="427.7" xlink:href="#linear-gradient"/>
    <linearGradient id="linear-gradient24" x1="301.9" y1="286.8" x2="397.6" y2="424.8" xlink:href="#linear-gradient"/>
    <linearGradient id="linear-gradient25" x1="304.5" y1="285" x2="400.3" y2="423" xlink:href="#linear-gradient"/>
    <linearGradient id="linear-gradient26" x1="315.9" y1="277.1" x2="411.6" y2="415.1" xlink:href="#linear-gradient"/>
    <linearGradient id="linear-gradient27" x1="300" y1="288.1" x2="395.8" y2="426.1" xlink:href="#linear-gradient"/>
    <linearGradient id="linear-gradient28" x1="316.1" y1="277" x2="378.5" y2="366.9" xlink:href="#linear-gradient"/>
    <linearGradient id="linear-gradient29" x1="301.7" y1="287" x2="397.4" y2="425" xlink:href="#linear-gradient"/>
    <linearGradient id="linear-gradient30" x1="300.7" y1="287.6" x2="396.4" y2="425.7" xlink:href="#linear-gradient"/>
    <linearGradient id="linear-gradient31" x1="307.6" y1="282.9" x2="403.3" y2="420.9" xlink:href="#linear-gradient"/>
    <linearGradient id="linear-gradient32" x1="305.1" y1="284.6" x2="400.8" y2="422.6" xlink:href="#linear-gradient"/>
    <linearGradient id="linear-gradient33" x1="307.6" y1="282.9" x2="403.3" y2="420.9" xlink:href="#linear-gradient"/>
    <linearGradient id="linear-gradient34" x1="312.9" y1="279.2" x2="408.6" y2="417.2" xlink:href="#linear-gradient"/>
    <linearGradient id="linear-gradient35" x1="308.1" y1="282.5" x2="403.8" y2="420.5" xlink:href="#linear-gradient"/>
    <linearGradient id="linear-gradient36" x1="312.1" y1="279.7" x2="407.9" y2="417.7" xlink:href="#linear-gradient"/>
    <linearGradient id="linear-gradient37" x1="317.1" y1="276.3" x2="412.8" y2="414.3" xlink:href="#linear-gradient"/>
    <linearGradient id="linear-gradient38" x1="317.5" y1="276" x2="413.2" y2="414" xlink:href="#linear-gradient"/>
    <linearGradient id="linear-gradient39" x1="313.3" y1="278.9" x2="409" y2="417" xlink:href="#linear-gradient"/>
    <linearGradient id="linear-gradient40" x1="317.2" y1="276.2" x2="412.9" y2="414.2" xlink:href="#linear-gradient"/>
    <linearGradient id="linear-gradient41" x1="314.3" y1="278.2" x2="410" y2="416.2" xlink:href="#linear-gradient"/>
    <linearGradient id="linear-gradient42" x1="302.9" y1="286.1" x2="398.6" y2="424.1" xlink:href="#linear-gradient"/>
    <linearGradient id="linear-gradient43" x1="305.1" y1="284.6" x2="400.8" y2="422.6" xlink:href="#linear-gradient"/>
    <linearGradient id="linear-gradient44" x1="294.6" y1="291.9" x2="390.3" y2="429.9" xlink:href="#linear-gradient"/>
    <linearGradient id="linear-gradient45" x1="297.4" y1="289.9" x2="393.2" y2="427.9" xlink:href="#linear-gradient"/>
    <linearGradient id="linear-gradient46" x1="296.7" y1="290.5" x2="392.4" y2="428.5" xlink:href="#linear-gradient"/>
    <linearGradient id="linear-gradient47" x1="297.9" y1="289.6" x2="393.6" y2="427.6" xlink:href="#linear-gradient"/>
    <linearGradient id="linear-gradient48" x1="380.1" y1="400.7" x2="431.5" y2="475" xlink:href="#linear-gradient"/>
    <linearGradient id="linear-gradient49" x1="297.6" y1="289.8" x2="386.8" y2="418.3" xlink:href="#linear-gradient"/>
    <linearGradient id="linear-gradient50" x1="318.1" y1="275.6" x2="413.8" y2="413.6" xlink:href="#linear-gradient"/>
    <linearGradient id="linear-gradient51" x1="347.2" y1="361.2" x2="367.9" y2="390.9" xlink:href="#linear-gradient"/>
    <linearGradient id="linear-gradient52" x1="299.8" y1="288.2" x2="395.6" y2="426.3" xlink:href="#linear-gradient"/>
    <linearGradient id="linear-gradient53" x1="301.4" y1="287.1" x2="397.2" y2="425.2" xlink:href="#linear-gradient"/>
    <linearGradient id="linear-gradient54" x1="313.7" y1="278.7" x2="409.4" y2="416.7" xlink:href="#linear-gradient"/>
    <linearGradient id="linear-gradient55" x1="297.4" y1="289.9" x2="393.1" y2="427.9" xlink:href="#linear-gradient"/>
    <linearGradient id="linear-gradient56" x1="303.9" y1="285.4" x2="399.6" y2="423.4" xlink:href="#linear-gradient"/>
    <linearGradient id="linear-gradient57" x1="302.7" y1="286.2" x2="398.4" y2="424.3" xlink:href="#linear-gradient"/>
    <linearGradient id="linear-gradient58" x1="300.7" y1="287.6" x2="396.5" y2="425.6" xlink:href="#linear-gradient"/>
    <linearGradient id="linear-gradient59" x1="303.5" y1="285.7" x2="399.2" y2="423.8" xlink:href="#linear-gradient"/>
    <linearGradient id="linear-gradient60" x1="305.1" y1="284.6" x2="400.8" y2="422.6" xlink:href="#linear-gradient"/>
    <linearGradient id="linear-gradient61" x1="301.3" y1="287.2" x2="397" y2="425.2" xlink:href="#linear-gradient"/>
    <linearGradient id="linear-gradient62" x1="312.2" y1="279.7" x2="407.9" y2="417.7" xlink:href="#linear-gradient"/>
    <linearGradient id="linear-gradient63" x1="306" y1="284" x2="401.7" y2="422" xlink:href="#linear-gradient"/>
    <linearGradient id="linear-gradient64" x1="307.8" y1="282.7" x2="403.5" y2="420.8" xlink:href="#linear-gradient"/>
    <linearGradient id="linear-gradient65" x1="316.4" y1="276.8" x2="412.1" y2="414.8" xlink:href="#linear-gradient"/>
    <linearGradient id="linear-gradient66" x1="313.6" y1="278.7" x2="409.3" y2="416.7" xlink:href="#linear-gradient"/>
    <linearGradient id="linear-gradient67" x1="303" y1="286" x2="398.7" y2="424.1" xlink:href="#linear-gradient"/>
    <linearGradient id="linear-gradient68" x1="317.8" y1="275.8" x2="413.6" y2="413.8" xlink:href="#linear-gradient"/>
    <linearGradient id="linear-gradient69" x1="297.9" y1="289.6" x2="393.6" y2="427.6" xlink:href="#linear-gradient"/>
    <linearGradient id="linear-gradient70" x1="303.6" y1="285.6" x2="399.4" y2="423.6" xlink:href="#linear-gradient"/>
    <linearGradient id="linear-gradient71" x1="319.8" y1="274.4" x2="415.5" y2="412.4" xlink:href="#linear-gradient"/>
    <linearGradient id="linear-gradient72" x1="318.9" y1="275" x2="414.6" y2="413" xlink:href="#linear-gradient"/>
    <linearGradient id="linear-gradient73" x1="323.2" y1="272" x2="418.9" y2="410" xlink:href="#linear-gradient"/>
    <linearGradient id="linear-gradient74" x1="320" y1="274.2" x2="415.8" y2="412.3" xlink:href="#linear-gradient"/>
    <linearGradient id="linear-gradient75" x1="301.9" y1="286.8" x2="397.6" y2="424.8" xlink:href="#linear-gradient"/>
    <linearGradient id="linear-gradient76" x1="308.2" y1="282.5" x2="403.9" y2="420.5" xlink:href="#linear-gradient"/>
    <linearGradient id="linear-gradient77" x1="308.9" y1="282" x2="404.6" y2="420" xlink:href="#linear-gradient"/>
    <linearGradient id="linear-gradient78" x1="310.3" y1="281" x2="406" y2="419" xlink:href="#linear-gradient"/>
  </defs>
  <rect x="0" width="800" height="800" fill="#0b0a2d"/>
  <g>
    <path d="M398.5,436.4c-.4-.6.8-1.3.9-2.2-.2,0-1.4,1.5-1.9,1.1-.6-.1-.3-1.3-.6-1.1v.2c0,.9.1,1.3.9,1.6.5,0,.4,1,.2,1.3-.2.4.1.7.5,1,.3.4.3-.3.5-.5.5,0,.1,1,.6,1.5,1.8,1.8,1.3-4.4.6-4.8-.4,0-.6,3.1-1.7,1.8Z" fill="url(#linear-gradient)"/>
    <path d="M388.9,428.6c.3.8.5,1.3.1,1.8-1.9-1.1,0-1.4-1.4-2.9-.8,1,.6,2.5.2,3.5,1,.1,2.5-1.4,1.1-2.5Z" fill="url(#linear-gradient1)"/>
    <path d="M397.2,439.9l-.9-1.6.9-.8c-.4-.3-.4-1.4-1.1-1.2,0,.2,0,.5-.1.6-.9-.8.3-1.8-.8-2.2-.2,1-.5,1,0,2.1-.5.7-1.1,1.1-1.6,1.2,0,.3.6.8.5,1.2,0,0,0-.1,0-.2l1.5,1.1c-.2-.5.1-.6.2-.9l1,2.5c1.6.6,1.5-1.2,2.3-1.3-1.6-.3-.3-.9-2-.5Z" fill="url(#linear-gradient2)"/>
    <path d="M394.1,439.2s0,0,0,0c0,0,0,0,0,0Z" fill="url(#linear-gradient3)"/>
    <path d="M401.9,431.2c0,0-.2,0-.2,0,0,0,.2,0,.2,0Z" fill="url(#linear-gradient4)"/>
    <path d="M404.4,427h0c0,0,0-.1,0-.1h0Z" fill="url(#linear-gradient5)"/>
    <path d="M395.8,431s0,0,0,0h-.2c0-.1.1,0,.1,0Z" fill="url(#linear-gradient6)"/>
    <path d="M397.3,433.7c0,.2,0,.3-.1.5,0-.1.1-.3.1-.5Z" fill="url(#linear-gradient7)"/>
    <path d="M388.4,422.6c0,.2.1.3.2.5,0-.2-.1-.3-.2-.5Z" fill="url(#linear-gradient8)"/>
    <path d="M404.6,395.2c.1,0,.2,0,.3,0-.2-.1-.3-.1-.3,0Z" fill="url(#linear-gradient9)"/>
    <path d="M389.3,427.2h0c0,0,0,.1,0,.2v-.2Z" fill="url(#linear-gradient10)"/>
    <path d="M394.3,429.5h0s0,0,0,0Z" fill="url(#linear-gradient11)"/>
    <path d="M403.1,410s0,0,0,0c0,0,0,0,0,0Z" fill="url(#linear-gradient12)"/>
    <path d="M416.4,369.3c-.3-.6-.2-1.5.3-1.9,1.2.7.1,2.4.5,3.7l-.5-1.9h-.3ZM443.7,312.9c.7.4,1.2,1.6.5,2-.6-.5,0-.9-.9-1,.5,1,0,.7.9,1.3.2,1.1.8,1.7,1.1,2.6,0-1.2,2-2.2,1.5-4.2-.8-1.4-2.5-2.2-4.2-3.4-.4-.2-1.5,1.2-.4,2.1,1.1-.2.4,1.7,1.4.6ZM445.8,319.7c-.8-.9-.6.7-1.2,1.2-.4-.3-1.2-.9-1.3-.9h0c.1.6.9,1.8.8,2.6-.2,1-.9,2.4-1.5,2.8-.5.3-1.7-.6-1.8.3-.2.6.2,1.4.1,2,.2.6-.6,1.3-.4,1.7,0,.4.7,1,.9.8.2-.1.5-.4.8-.6.3-.4,0-1.5.3-1.6.2-.2.6.8.7.5.6-1.1,1.4-2.2.7-3.5-.3-.6.7-.4.7-.8.1-.3,0-1.3.4-1.8.6-1,1.6-1.7.9-2.6ZM435.2,333.2c-.4.6-.8-.6-.9-.5-.6.4-1.2,2.1-2.1,2.2-.3,0,0,.3.1.9.3.7-.2,1.5-.2,2.2,0,1,2.5,2.3,2.1,3.2-.8,0-1.8-.1-2.5,0-.6,0-.7-.6-.4-1.5.1-.8,0-2.3-.3-2.5-.1,0-.4.8-.6,1.2-.2.4-.5.5-.5,1,0,1,0,2.1-1.1,2.2h-.2c-.7.7-1.6-.8-1.4-1.7.9-2.8,3.7-4.2,4.3-7.2.3-1,1.7-1.8,2.2-1.1.5.4,1.4,1.1,1.4,1.8ZM429.4,340c-.3,0-.4.2-.5.5l.5-.5ZM437.1,335.5c0,0,.1,0,.3,0,.1.3.3.7.5,1l-.4-1c.3,0,.8.2,1.1.3.4.2,0-.7.2-.9,4.3,1.2,0-7,0-9.2-.4-1.2,1.7-3.7,2.5-2.3.2.3.4.6.5.5.4-.4-.3-1.7-.7-2.3v-.3c.1-.4,1.2.7,1.4.3.5-1.5-3.3-1.2-3.2-2.7,0-.8.7-1.3,1.2-.6.3.3.6.7.6.7.2.1-.1-1.8.5-2.9.5-1,1.1-1.6.9-2.5-.2-1.1-1.7-1.4-2.2-.9,0,0,0,0,0,0,0-.2-.1-.5,0-.6-.3.3-.3.4-.2.7,0,0,0,0,0,0-.6.5.3,1.3.1,2.1-.3.7-1.2,1.4-1.5,2.1-.2.2,0,1.2-.2,1.6-.2.4-.5.1-.7.6-.1.4-.5,1.5-.9,2-.3.4-.5.7-.7,1-.2.6-1.1.4-1.9,1.3-.4.5-.9,1.4-1,2-.2.9.2,1.6.8,2.8,1.2,2.6,3,7,3.2,6.9ZM438.4,339.5c.1-.3-.2-.6-.3-.8l-1.7,3c.4.2,1.4-.3,1.3.4.6,0,.6-1,.2-1.5l.5.7c-.4-1.2,1.4-.6,1.6.2h0c0,0-1.8-4.1-1.8-4.1-.6.6.7,1.3.2,2.1ZM418.8,383.2c0,0,0,0,0,.2-.5,1.9-1.5-.9-1.8,1.2,0-.1-.2-.3-.2-.4,0,.9-1.1,1.9-.2,2.7.1-.2,1.3-1,1.8-.3,0-.6,1.1-.8,1.1-1.2-1,.4-.9-.5-.9-1.3.6-.3.7.7,1.2.4l.5-1.2-.7.8-.8-1ZM450.2,360.3v.3c-.9-1.6-1.6-1.5-1.9-3.3-1.1.2-.6,1-.3,1.8,0,.2,0,.3,0,.5l1,2.3.6.8v-2c.2.5.4-.3.8.4,0-.2,0-.7-.2-.8ZM472,314.5c-.7.1-1.4,1.7-1.4,2.6.4.8-.5-.2-.3.7.3.5.5,1,1.1.9.5.6-.3,2.7-1.1,3-.4.2-.5-.5-.7-1.2-.3-.5.2-1.2.2-1.6,0-.4-.8-1.1-1-.3-.8,1.8-2.1,3.9-2.2,5.9l.2.2c.2,0,.5.2.7.2,0,.7.3,1.4.8,1.8.2-.5.5-.9.8-1.2,0-.2-.2-.6-.3-.8-.6,0-.8-.6-.5-.9.5-.3.7,0,1.3,0,.5,0,1-.6,1.2-1.2.6-.8.1-.3.7-1.5.4-.9,1.1-2.4,1.6-3.6,1.4-2.4.2-2.2-1.2-3ZM467.5,326.8c-.9-.1-.4-1.2-1.2-1.6-1.5-.4-.7,1.8-1.2,2.7-.4.4-1.4,0-1.7.8-1,1-1.3,2.4-1.8,3.9-.2.6-.4,1.3-.7,1.9-.4.7-1,.2-1.2.4-.3.5-.7.2-.8.7-.2.8.2,3.2,1,3.6v.2c0,.9-1.3-.1-1,.8,0,1.7-1-1.6-1.4-1.3-.2.3-.4,1.4-.2,1.7.2.4.7.6.8,1.2.2.7.1,1.7.4,2.3.2.4.4.6.6.8l-.4.7c.3.2.6.3.9,0-.2-.2-.3-.5-.4-.7.4.1.9-.1,1.2-.7.4-.8.5-2.5,1.1-3.2.4-.5.7-.3.9-1.2,1.4-4.2,4.8-8.9,6.8-13,.4-.7-1,0-1.9,0ZM448.9,350.3h0s.3.6.3.6c0,0-.1,0-.2-.1,0-.2-.1-.3-.2-.5ZM442.1,320.1c0,0,0,.2,0,.2,0,0,0-.2,0-.2ZM471,302.9h0c0,0,0,0,0,0ZM440.3,329.1c0,0-.2,0-.3,0,0,0,.2,0,.3,0ZM441,324.7c0,0,0,.2,0,.3,0,0,0,0,0,0,0,0,0-.1.1-.2ZM452.9,318v.4c0-.1,0-.2,0-.4ZM441.3,336.7s0-.1.1-.1c0,0,0,0-.1.1ZM433,377.4l.2-.3c0,.1-.1.2-.2.3ZM420.6,402.1c.2,0,.3,0,.5,0-.2.1-.3.1-.5,0ZM433.5,388.6s0,0,0-.1c0,0,0,0,0,0h0ZM439.4,376.3c0,.1,0,.2,0,.3,0-.1,0-.2,0-.3ZM435,373.8c0,.1,0,.2,0,.3v-.3ZM444.9,363.3v.6c-.1-.2-.1-.4,0-.6ZM436.6,373.4c0,0,.1.1.2.2,0,0-.1-.1-.2-.2ZM425.7,349.6l.3.4c0,0-.2-.2-.3-.4ZM423.8,353.6s0,0,0,0c0,0,0,0,0,0ZM443.4,369.6c0,0,0,0-.1,0,0,0,.1,0,.1,0ZM423.8,353.7s0,0,0,0c0,0,0,0,0,0ZM417.5,374.4c-.2,0-.4,0-.4,0,.2,0,.3,0,.4,0ZM420.7,371.8c0,0,0,0-.1,0h.1ZM419.6,409.1c0,.1,0,.3-.2.5,0-.2,0-.3.2-.5ZM423.5,353.2c0,.2.1.3.2.4,0,0-.1-.2-.2-.4ZM418.6,383.1s0,0,0,0c0,0,0,.1,0,.2v-.2ZM416.7,383.8c0,.1,0,.3,0,.4,0-.1-.2-.3,0-.4ZM411.5,389.9c0-.2,0-.3,0-.4,0,.2,0,.3,0,.4ZM418.4,386.6c0,.1.2.3.2.5-.1-.2-.2-.4-.2-.5ZM475,282.2c0,.1.2.3.3.4-.1-.2-.3-.2-.3-.4ZM430.3,363.4c0,0,.1-.1.2-.1h-.2ZM438.6,350s0,0,0,0c.1-.1.3-.3.4-.4-.1,0-.2.1-.4.3ZM445.4,360.2s0,0,0,0c0,0,0,0,0,0h0ZM421.7,404.1l.2.3-.2-.3ZM414.2,390.2c0,.2,0,.3,0,.3,0-.1,0-.2,0-.3ZM434.3,388.7c0-.1,0-.3.1-.4,0,.1,0,.2-.1.4ZM415.5,372.9c0,.1-.1.2-.2.3,0,0,.1-.2.2-.3ZM425.6,367.4c0-.1,0-.3-.1-.4,0,.2.1.3.1.4ZM444.2,372.5h0s0,0,0,0ZM457,341.5c0-.2.2-.3.3-.4,0,.1-.2.3-.3.4ZM469.5,326.6l.4-.7c0,.3-.2.5-.4.7ZM469.4,317.7c0,.1,0,.2-.1.4,0-.1,0-.2.1-.4ZM445.4,317.8c0,.2.1.4.2.7-.1-.2-.2-.4-.2-.7ZM455.7,313.6v.5c-.1-.3,0-.4,0-.5ZM456.5,313.6c0,0,.1,0,.2,0,0,0-.1,0-.2,0ZM480.9,279.2c-.2,2.8-1.5,4.8-2.4,7.6-.7,1.2-1,3.1-1.6,4.7-1.3,2.2-3.2,5.3-3.6,7.9-.3,1.1-.6.7-1,0-.4-.7-.9-.3-1,1-.3,1.8.5,2.2.9,3.2,0,.8-.5,1.3-1,2.1-1.8,1.9-2.9,4.2-3.2,7.1-.5,3.3-1.1,4.1-3,4.5-.4.5,0,1.5-.2,2.1,0,1.6-.7,2.5-1.6,3.8-.5.8-.9,1.7-1.3,2-.5.5-1.1-.8-1.6-1-.8.1-.9,1.4-1.3,2.5-.7,3.3-.8,6.8-2.8,9.2-1.1,3.5-2.4,7.3-4.7,10.8-1,1.3-2.1,3.3-1.5,4.9.4,1.3,1.2.7,1.5,1,1.5,3.5,3.2,1.4,1.9-1.5-.5-1.8.8-3.5,1.2-5.2.5-1,1.1-3.2,2.2-2.7.2.4-.4,2.5-.4,3,0,.6.3,1.3.5,1.8.8,2.1-1.1,4.5-1.8,6.4-1.1,1.3-3.4,2.4-3.4,4-.8,2.2-2.1-1.6-3.1-2.8-.8-1-1.5-.9-1.4.6,0,.8,0,1.9,0,2.8,0,1.5-.6,2.2-1.3,2.5-.6.4-1.5,0-2.2-.1-.9,0-1.7.5-2.2,2.1-.8,1.7.2,5.9,2,5.2,0,0,0-.1.1-.2l.2-.6h0c.1-.6.1-1.4.3-1.9.5-1.2,2.6-2.2,3-.3.2,1.8-2.2,4.6-3.3,5.8-.7.4-1.5.4-1.9,1.2-.8,2.5-1.3,8.4-4.3,9.8-1.3,1-2.1,0-1.3-1.6.6-.7.5-2.1.9-2.6.5-.6,1.2.3,2.1-.3.2-.3.4-.7.5-1,.5-1.5-.4-1.4-1.8-2.1-.8-.4-2-1.7-2.8-1.7-.8,0-.7,1-.9,1.7-.2.9-.9,1.2-1.7,2.1-1.8,1.1-3.6,5.1-1.2,6.7.5,0,.5-2,.7-2.8.3-.6,1,0,1.1.5.8,2.8,1.2,2.8,0,6.3-.4.9-.4,3.4-1.1,1.2-.4-1.3-2.1,1.8-2.2-.9,0-.5.1-1.3,0-1.8-.4-1.1-1.3.7-1.1,1.9.1,1.7,1.2,3.2,1.5,4.9.5,3-4,4.6-1.8,1.9,1.6-2.2,0-2.1-1.1-3.7-.4-.4-.8-1.2-.9-.2,0,.4,0,1,0,1.4.4,2.3-1.1,3.8-.8,4.8,0,.7.8,1.3.8,1.8.3.6-.9,2.7-1.8,3.4-.6.7-2,.7-2.4.4-.5-.6,1.7-.8,1.8-2,1.2-5.6-3.4,0-4.3,1.2-1.6,1.8,1.1,2.5.2,4.2-.1.3.2,1,.1,1.6,0,.5-.7.7-1.1.3-.5-.6-.7-2.2-1-2.4-.9-.3-1.8,0-2.6.8l1,.2c-1.9.6.6,3.2-1.5,4.1.4-1.2,0-2.4,0-3.7,0,0-.1.2-.2.3,0,.1,0,.2-.2.2-.9,1.5-1.2,3.5-.4,5.1.3.7.5,1.5.4,2.2,0,0,0,0,0,0l-6.3-13c.1-.9.4-1.5.5-2-.3-.5-1-.4-1.6-.3,0,0,0,0,0,0l-2.5-5.1h0c0-2.3-.5-4.8,1.5-6.1.7-1,1.7-1.9,2.3-3.1.8-3,.7-6.3,3.3-8.3,1.7-1.7,4.5-.9,5.1-2.5,0-1.3-2.7-4.7-1.1-4,.7.4,1.5.8,2.4.5,1-.4,1.5.4,2.2,1.7.2.3.5,1.1.9.8.3-.5.3-3.6-.2-5-.6-1.8-2.7-.3-2.9-1.3-.2-1.2.7-2.4,1.3-3.3,1.2-1.5,1.3-4.3,2.3-6.1.5-.9,1.6-1.1,2.1-2.1-.3-.1-1-1.2-.6-1.5l.5,1.2c.5-.4-.2-1,.5-.7.2-.7.4-1.5.6-1.9.3-.5.5-.2,1-.1.5,0,1.6-.3,2.1-1.2.8-1.1-1.1-1.7-1-2.4,0-.8-.2-2.2.2-3,.5-.4,1,.4,1.6,1.3,1.9,3.3,2.5,1.4,1.7-1.3-.3-1-1-2.6-1.1-3.2,0-.2,0-.3,0-.2.9.6,2.3,2.1,3.2,3,2.6,3,4.7-.3,6.7-.4.4.2-.1.6-.3,1-.6.8-.7,1.5,0,1.8,2.6-.5,2.1-2.5,1.5-4.7v-.3c.3-3.5,1.4-6.6,2.8-8.8.8-.6,2.3-.7,2.7-1.7.9-1.3.3-4.9,1.6-6.5.6-1.1,1.7-2.2,2.1-2.7.4-.5.2-.6-.2-1-.9-.7.5-1.4,1.1-1.9,2.5-1.5,4-3.9,5.6-6.4,0-.1,0-.2.1-.3-.3-.1-.6-.2-.7,0l.2-1.1c.4.1.4.7.5,1,.5-1.3.9-2.5,1.5-3.1.3-.4.9-.1,1.4,0,.9.3,1.3-.3,1.4-1.9-.4-2.7.3-4.4,2-6.5,2.9-4.6,4.3-9.5,7.4-12.8,1.5-1.9,2.2-5.3,3.3-7.6.4-.9.9-1.4,1.3-1.8,0-.1,0-.3,0-.6,0,.2.1.3.2.4.3-.3.7-.6,1-1.2.5-1.3,1.1-3.7,1.8-3.4.9.5,1.8,2.3,2.5,2.5.5.3.8.7.8,1.6ZM426.2,377.9c-.4-1.4-2.5-1.3-3.6-.8-1.9.4-2.3,3.9-3.5,4.6-.4,0-.9-.5-1.3-1-.4-.4-.8-.3-1.3-.2-1.7,0,0-1.8.7-2.2.8-1-1.7-.3-2.1-.6-1.2.1-2.2-1.5-3.2-.4-.5.5-.3,2.2,0,2.2.2.3.5-.4,1.2-.5,1.8,0,1.6,2.6,1.9,4.2.2,1.7-1.6,2.9-2.1,4.2-.4,1.5,1.3,3.2-1,2.5-.2,0-.3,0-.4.1-.3.2-.2.8.1,1.2.9.8,2.5,2,2,3.1-.6,1.1-1.7.7-2,1.9-.3,1-.4,1.7-1,2.1-1.1.8,0,3.2,1.4,2.1,1.6-1.1,2.4-4.1,4.2-4.8,1.6-.5.7-4.1,0-5.8-.3-1.6.8-.6,1.4,0,.9,1.1,1.8,1.2,2.2,0,.4-1,1.8-3.1,2.8-4,1.1-.8,1.5-1.2,1.6-1.9.7-1.6,1.1-4.3,2-5.8v-.3ZM429.4,364.3c0-.6-.6-1.1-1-1.3-.3,0,0-.7-.2-.9-.5-.3-.9-.5-1-1,0-.4-1.2.9-1.3,1.8,0,.6.5,1.2.2,1.4-.3.3-1.5.4-1.8,1.1-.5.7-.5,1.9-.5,2.5,0,.7-.5.7-.8,1.3-.2.7.1,2.1.3,2.9.2.9.5.3.9,0,.3-.3.7.7,1.1.6h.2c1.3,1.6,2.5,0,1.4-1.4-.3-.3-1.5-.6-1-1,.7,0,1.6,0,1.4-.9-.2-.3-1.1,0-1.6-.3-.4-.2-.4-1-.1-1.3.3-.2,1.1.4,1.8.1.9-.4,1.1-1.5.6-2.4-.3-.4-.9-.4-1-.6-.1-.2,0-.5.3-.6.5.2,1.9.8,2-.2ZM430.1,362.2c-.2,0-.3,0-.5-.3-.6.5,0,.7.3,1.1,0-.3.2-.6.3-.9ZM431.6,353.4c.8,1,.3,2,1.3,2.8.2.3.5.1.7,0,.2-.2.4-.5.5-.8-.1-.1-.3-.3-.3-.5-.3.2-.7.2-1.3-.4,1.9.3-.6-1.4.2-2-.6-.8-1.3.3-1.1.8ZM436.3,360.4c-3.3.6-5.8.9-3.7-2.7v-.4c-.6.3-1,1.1-1.3,2,.4,1.2,2,5.2,2.3,5.4.7.2.2-.6.7-.9l-.6-.2c.9-1.1,1.9-2.2,2.7-3.3ZM437.8,351c-.4-.2-.7-.4-1-.3l.7.7c.1-.1.2-.3.4-.4Z" fill="url(#linear-gradient13)"/>
    <path d="M338.7,342c.5.1,1.7-.2,2.2.2.7.7,1.5,1.9,1.6,2.7,0,.6-1.1,1.5-.5,2,.4.4,1.1.4,1.6.6.6,0,.8,1.1,1.2,1.1.3.2,1.1-.3,1-.6,0-.2,0-.7-.2-1.1-.2-.5-1.1-.6-1.1-1,0-.3.9-.2.7-.5-.6-1.1-1.2-2.3-2.5-2.1-.6,0,0-.9-.4-1-.2-.3-1.1-.4-1.3-1.1-.5-1-.7-2.3-1.7-2-1,.5.3.9.5,1.7-.4.3-1.2.9-1.3.9h0Z" fill="url(#linear-gradient14)"/>
    <path d="M348.5,354.5s0,0,0,0c0-.2.5-.9.8-1.2s-.5-.2-.6-.6c2.7-3.9-5.7-2.7-7.4-3.5-1.2-.1-2.3-3.1-.8-3.4.3,0,.7-.1.6-.4-.1-.6-1.5-.3-2.1-.2h-.2c-.3-.4,1.1-1.1.8-1.4-1.1-1.2-2.4,3.4-3.8,2-.8-.8.4-1.4,1.1-1.6.2-.2-1.5-.6-2.1-1.6-.6-.9-.9-1.8-1.6-1.9-.9-.2-1.6.8-1.7,1.7-.2,0-.4,0-.4-.2,0,.4.2.4.4.5,0,.2.1.4.3.6.3,0,1.1,0,1.5.2.5.5.6,1.7,1.1,2.3.1.3,1,.5,1.2.8.3.4,0,.6.2,1,.6.4,1.4,2,1.8,2.8.4.5-.1,1.2.2,2.4.2.6.8,1.4,1.2,1.9.6.5,1.4.4,2.6.4,2.5-.2,6.8-.2,6.8-.5Z" fill="url(#linear-gradient15)"/>
    <path d="M332,339.9c.3-1.2,1.5.3,1.1-1.3.6-.6,1.8-.6,1.8.3-.7.4-.7-.3-1.2.5,1-.1.6.4,1.4-.4,1,.3,1.7-.1,2.6-.1-.9-.5-.9-3-2.8-3.2-1.5.2-2.8,1.8-4.4,3-.3.4.4,2.1,1.5,1.3Z" fill="url(#linear-gradient16)"/>
    <path d="M349.5,362.4c.6.6,1.1.8,1.4.2.2-.7.8-1.7,1-2.5-.5-.8-2.7,1.2-3.5.8-.6-.3-1-1.2-1.7-1.1-.5,0-.8.2-.8-.2.3-.7-.5-1.7-.8-2.6,0-.3-.2-.5,0-.4.3,0,.9-.3.8-.4-.2-.8-2.1.5-2.4.6-.4.4-.4,1.9.2,2.6,2.5,2.3,1.9,4.8,4.1,7.3.6.6,2.2.3,2-.7v-.3c.3-1.1-.6-1.7-1.4-2-.3-.2-.4-.5-.6-.9-.2-.3-.7-.9-.7-1.1.3-.3,1.6.2,2.2.7ZM348.9,364.6l.2.7c-.2-.2-.4-.4-.2-.7Z" fill="url(#linear-gradient17)"/>
    <path d="M352.2,355c-.2-.2-.6,0-.8,0l1.7,3c.3-.4.3-1.6.9-1.2.2-.5-.4-1-.9-.9l.5-.2c-1.1-.1,0-1.7.8-1.6h0s-4,.2-4,.2c.2.8,1.3-.2,1.8.6Z" fill="url(#linear-gradient18)"/>
    <path d="M347.4,312.1c.8,0-.4.5.4.5.5,0,1-.1,1.2-.8.7-.2,2,1.4,1.9,2.4,0,.5-.7.4-1.2.2-.6.2-.9-.7-1.2-.9-.4-.2-1.2.5-.7.9,1.1,1.6,2.2,3.8,3.8,4.6h.2c.5-1,.7-.8,1.5-.6.2,0,.5-.2.7-.3,0,.3-.2.7-.3.9-.5.9-1.1,0-1.8.6-1,1.4,1.2,1.5,1.7,2.4.1.6-.5,1.5,0,2.1.4,1.5,1.4,2.4,2.5,3.5.4.4.9.9,1.3,1.5.4.8-.3,1.2-.1,1.5.2.5-.1.8.2,1.1.6.5,2.7,1.1,3.4.4h.2c.7.4-.7,1.5.2,1.5,1.4.7-1.7.4-1.6.9.2.4,1,1,1.4.9.5,0,.8-.5,1.3-.4.6,0,1.4.6,2,.5.4,0,.6,0,.8-.3l.3.6c.2-.2.4-.5.4-.9-.2,0-.3.1-.5.1.2-.4.2-.9-.1-1.5-.5-.7-1.8-1.6-2.2-2.5-.3-.6,0-.8-.6-1.4-2.8-3.3-5.3-8.8-7.8-12.6,0-.1-.1-.2-.2-.1,0,0,0,0,0,0-.1,0-.2.6-.3,1.1-.3-.3-.5-.8-.6-1.2-.2,0-.5,0-.7,0-.3.6-.8.6-.9.1,0-.6.3-.8.6-1.4.3-.5,0-1.2-.5-1.7-.4-.9-.2-.2-.9-1.3-.7-.7-2.8-4.7-3.7-4.5-.5.4-1.1,1-1.5,1.5-.2.8.8,2.1,1.5,2.5Z" fill="url(#linear-gradient19)"/>
    <path d="M370.4,351.8c-.3,1.2.5,1.1,1.3,1.1.2,0,.3.1.4.2h2.3c0-.1.9-.4.9-.4l-1.6-.7c.5-.1,0-.7.7-.8-.1,0-.5-.4-.7-.1l.2.2c-1.6.2-1.8.9-3.4.5Z" fill="url(#linear-gradient20)"/>
    <path d="M381.5,395.2c-.5-.3-.2-1.5-.5-1.6-.1,1.2-.8.7-1.4.4,0-.7.8-.5.8-1l-.7-1,.4,1-1.1.4c0,0,0,0,.1,0,1.3,1.3-1.3,1.2.2,2.3-.1,0-.3,0-.4,0,.8.4,1,1.9,2.1,1.3-.2-.2-.2-1.8.5-2Z" fill="url(#linear-gradient21)"/>
    <path d="M410.8,437.4c.2,0,1.2.4,1.3,0,.2-.2.5-.5.6-.7.7,0,.8,1.1,1.4.6.5-.4.7-.4.2-1,.2-.5.8.2,1.4,0,2.1-1.2-2.7-3.1-3.4-2.5-.1.5,2.1,1.8.7,2.5-.6.2-.6-1.3-1.3-1.8-.1.2.6,2,0,2.4-.3.5-.7.2-1,.1.2-.2.4-.4.5-.8,1-2.9-.2-3.8.3-6.8.2-1,0-2.6-.8-3-1-.4-.5.3-.4.9.1,1.1-1.1,1.1-2.2.5-2.2-1.6,1-2.6,2-3.5.8-.5.4-.5-.4-.5h-.2c-.4,0-1,0-1.5,0-1,0-1.9,0-2.4-.7,0,0,0-.1,0-.2-.7-1.9.5-3.7,2.1-1.8.3.2.5.5.6.6.2.2.3,0,.2-.2,0-.7-.3-1.3-.5-2,0,0,.1,0,.2,0,.4-.4,0-.4-.4-.5-.9-2.2-2.4-4.1-3.3-6.5-.1-.3-.3-.6-.5-.9-.5-.8-1.1-1.3-1.9-1.6-.4-.1-.8-.2-1.2-.1-1.7.2-3.2-1.1-4.1-2.7.9.3,1.8.5,2.4,1.3.2-2.5-3-.9-2.7-3.2l-.3.5c-.1-.5-.2-1,0-1.5,0-.5.2-.9.5-1.3.3-.2,1.6.2,2.4-.1,1.5-1.4-.9-1.4-1.1-1.8-1-1.5-2.7.9-3.5-1.4-.2-1-2.7-5.4-.8-6,.7-.1,2.2,1.2,2.1,2.3,0,.9-.1,1.6.3,1.4,1.7-1.1,0-5.8-1.3-5.9-.4-.1-1.2.3-1.8.1-.9-.1-1.5-2.2-3.5-2.8-.4-.2-1.3-.4-1.5-.9,0-.3.6-.3.9-.5.8-.4,1.9-1,2.2-1.1.7-.7,1.4,2.4,2.1,2.5.6,0,.4-3.3-1.6-3.8-1.8-.5-5.4.5-6-2,0-.8.7-.3,1,0,.7.5,2.3,1.2,2-.2-.2-1.7.3-1.2,1.3-1.3.4-.2-1.1-1.2-1.4-1.6-2.4-2.7-2.6-2.3-5.1-2.5-.5-.1-1.3.4-.9.9.6.5,2.2,1.3,2,1.8-.5.6-2.1.6-2.7,0-2.3-1.8-1.8-5-3.1-6.7-.5-.4-1.4-.7-1-1.6.3-.8,1.9-1.6,2.5-2.3,1.2-1.1,1.5-2.2,2.5-1.1.2.3.5.6.6.9.1,1.1-.9,1.6-.6,2.3.3.6,1.4,1.3,1.8,2.2.9,1.4,1.9.6,1.7-.9.2-3.7-4.4-6.7-6.1-8.5,0,0,0,0,0,0-.5-.7-.2-1.6-.2-2.4-.5-1.9-3.1-8.4-4.8-4.8,0,.8,0,1.7.5,2.2.3.4.9.7,1.3,1h0c0,.1.6.7.6.7l-.5-.7c.3.2.5.4.6.8-.8,3.5-7.4,0-5.9-3.1.4-.8,1.1-1.5,1-2.3.3-2.4-3.7-2.9-4.6-4.3.4-1.8,5.3-.8,4.8-2.6-.4-.9-1.3-.7-1.3-2.4-.1-.9-.6-2.2-.8-3.3-.4-1-1.3-1.4-1.7-2.5-.7-.9-1.6-2.1-2.7-2-.5,0-1.2.2-1.7-.2-.5-.2-2.7-2.8-2.5-.9.5,2,2.4,3.5,3.5,5.1,1,1.5,2.9.4,4,1.6.6.7.4,1.4-.5,1.7-.4.2-1.1.2-1.4.3-.3.2-.2,1.3-1.4,1.2-1.6,0-2.7-2-3.3-3.5-2.2-4.9-5.4-6.9-7.4-10.5-1.4-2.8-5.4-4.3-7-7.1-.4-.6-.1-.9.4-1,1.9-.4.6-1.7,0-3.1-.6-1.5-1.1-2.7-2.4-3.2-.5-.4-1.4-.5-1.6-1.1.4-2.2,0-3.1-2.4-4.9-2.8-1.7-3.8-4.7-5.1-7.6-1-1.5-1.9.5-3.6-1-.9-.7-1.1-1.4-.3-1.5.5,0,1.2-.3.6-.9-1.7-1.3-3.9-4.8-5.1-7.1-2.1-2.2-3.9-4.5-5.6-6.8-1.1-1.1-2.8-3.5-4.2-2.2-.5.7-2.4.9-3.1,1.7-.5.6,1.2,2.2,2,3.2.8,1.3.4,2.2,1.5,3.7,1.4,2.1,3.9,4.2,4.8,6.6,1.4,4.6,4.7,8,7.2,13,1,2.6,2,4,4.4,4.7,1.2.7,1.6,1.4,1,2.2-.3.4-.8.9-.6,1.4.3.7.9,1.5,1.7,2.5-.1,0-.3,0-.4.2l.8.7c0,0,0-.2,0-.3,0,0,0,0,0,0,1.3,2.6,2.7,5.2,2.8,8.4.2.8.2,2.5,1.1,1.9.4-.2.6-.5.8.2.6,1.9,1.8,4.9,3.8,5.9,2.7,1.1,2.4,2.6,2.4,5.2,1.2,2.4,3.2,4.8,6,6.5h.2c2,.4,3.8.7,3.2,3.6-.8,1-1.3-.6-1.8-1.3-.8-.6-.5,2-.5,3.5.5,3.2-4.4,4.3-6.1,5.7,0,.5,2.3.1,3.2.3,1.1.1,2.1.5,2.4,1,.3,1.7-4,1-3.8,2.5.5.8,1.7,1.1,2.3,1.4.5.4,1.8-1.4,2.4,0,.5.9.3,2.1.1,2.6-.3.5-.6.6-.3,1.1.3.4.9,1,1.4,1.5-.2.3,0,.2.2.3,0,0,.1.2.2.2,0,0,0,0,0,.1,0,0,0,0,0,0h-1.2c.1.5.9.4,1.3.1.2.4.3.8.4,1.3,0,.6.1,1.2.4,1.7,1,1.8,3.2,3,4,4.9.5,1,1.1,2.5,2.1,2.7.9.1.6-2.6,2.3-2.5,1.4,0,3.9,1.3,4.2,1.8.2.5-.6.5-1,.6-1.3.2-2.1.4-2.2,1.6,0,.4-.1.7-.3,1-.3.5-.7,1-1.1,1.4-1.2,1.4,2.7,0,3.8.5,1,1.2-.8,3.9-.1,6.3.5,3.6,3.3,4.8,5.3,6.8.7,1.1,1,2.4,1.5,3.6.3,2.8,2.8,3.2,4.8,4.2,0,0,0,0,0,0,.6.3,1.1.8,1.5,1.3.2.3,0,.3-.4.4-.6,0-1.7-.2-1.5.9.5,1.9,7.9,5.7,4.9,9.3-1.3.9-1.4,1.4-.5,2.8.2.2.3.5.5.8.4.8.9,1.6,1.4,2.3.2.3.5.6.8.8.8.3,2.2.3,2.4.9.4.5-.5,1.9,0,2.6.6.7,2.3,1.2,3,1.6,0,0,.2.2.3.2,0,0,.1.1.1.2.2.6.6.8,1.1,1.3.2.2.4.4.6.7.2.3.3.5.6.7.3.3.7.7,1.2.9.7.5,1.5.9,2.2,1.4,1.1.6,3.4.7,4-.3-.7-.9-1.7-1.6-2.3-2.8-.5-.5-1.3-1.6-1.6-2.3-.3-.9-.2-1.6-.6-2.1-.2-.3-.7-.7-1.1-1-.8-.7-1.5-1.2-.2-1.1.4,0,.9.2,1.3.3,2,.6,4,1.8,5.3,3.5.8,1.1,1.6,1.4,2.5,1.3.2,0,.4.1.6,0,.2,0,.5,0,.8-.2.3,0,.6-.1.9-.3v.2ZM361.1,360.3c0,.2.1.4.2.6l-.9.4c0-.4.4-.6.7-1ZM363.2,367.6c-1.1.7-1.7-.2-2.8.2-.4,0-1.1-1.2-.2-1.5,0,1.1,2.5-.8,1.5,1,.7-.4.9-.8.9-1.2.2,0,.4,0,.5-.2.1.3.2.6.4.9,0,.3,0,.6-.2.7ZM364.3,368.6c2,3.6,2.8.9,3.6-2.8.5,1.3,1,2.8,1.5,4.1l.4-.5c0,.5.9.4.4,1-.2.2-4.1.3-5.2.2-.6-.7-1-1.5-1-2.2h.3ZM367.4,373.6c-.4.2-.8.6-1,0,0,0,0-.1,0-.2.3-.1.4-.3.5-.5,0,0,.2.2.3.3.1.1.2.2.3.3ZM372,383.8c-.7,0-2-.3-2.5-.8-.4-.6-.2-1.1-.8-1.3-.5-.2-1.5-.7-1.8-1.5-.4-.7,0-1.9,0-2.3,0-.4-.7,0-1.2-.3-.7-.4-1.2-2.1-.9-2,.5.1.8-.2,1.2-.6.3-.1.6.4.8.1.3-.4,1-.6,1.4-.5.4.1.4,1.1-.1,1.5-.3.3-.6.6-.5.9,0,.2.3.5.6.1.6-1,1.2-.7,2,0,.9,1.1-.3,2.1-.5,2.8.1.6,1,.8,1.3,0,.2-.6.5-1.5.8-1.2.8.4-.2,1.4,0,1.9.2,0,.8-.6,1.1-.9,1.5-.6,2.3,1.3.6,2v.2c-.2.4-1.2.4-1.1.8,0,.5.4,1.1-.4.9ZM382.4,404c-.6.2-1.3-.2-1-.9,1.5-2.2-.6-1-1.6-2-.6-.6-.9-2-1.4-2.8-.5-1-1.5-1.3-2.5-1.4-1.2-.5-2.3-.6-2.9.6-.1.8.2,1.4,0,1.5-.1.2-1.5-.2-1.8-.9-.5-1.4,1.3-1.9,1.6-3.2.4-.3.9-3.2,1.4-1.9,0,.9.8,3.3,1.5,1.6.2-.5.2-1,.7-1.2.5-.2,1.1-.5,1.3-1-.1-1.4-2.7-3.3-2.3-5.4,0-1.3.8-3.5,2.1-3.3l.2.2c.8,1.6,2.9,3.1,3.8,4.4.6.5.7,1,.9,2.4.4,1.3,1.4,3.6,2,4.4,1.7,2.2-2.1,2-2.1,3.3.4.6,1.2.4,1.9.4,2,0,3.5,1,3.4,2.2,0,1.6.9,3.3,1.7,4.8.4,1,.7,2.3-.2,3-.8.4-1.7-.2-1.7-.8,0-1-1.1-1.5-1.7-2.5-.2-.5.2-1.5-.3-2.2-.7-1-2.3.2-3.3.8ZM394.7,421.1c-.3,0-.5,0-.5.2-.2.2-.4.4-1.1.4-.3,0-.8,0-1.1,0-.8,0,1.1.3,1,.9,0,.6-1.8,1.1-2,.7-.2-.4,0-.9,0-1.3-.2-.5-.9-1.4-.5-2,.4-.8,1.5-.9,1.7-1.2-.1-.4-1.3-.2-.4-1.3.8-1.2,0-3.1-1.3-3.1-.2,0-.5,0-.8.3-.4,0,.4.9-.3.9-.7,0-1.3-2.1-1.5-.8-.1.8-2.2.4-2.6-.2-.4-.8.4-2.2,1.2-1,1.1.2.6-2.6,1.7-2.7.6.5,1.5,1.7,3.1,2.3,0,0,.1,0,.2,0,1.9.6,2.2,1.3,3.1,2.7v.2c-1.2,1,1.7,1.7,1.2,2.5-.3.6-.3,1.5-.2,2.2,0,0,0,0,0,0,0,.3-.6.3-.9.3Z" fill="url(#linear-gradient22)"/>
    <path d="M365.5,389.1c0,.7.8,1.2,1.4,1.1v-.3s1.7.2,1.7.2c-1.1-.1-2.1-1.9-3.1-1Z" fill="url(#linear-gradient23)"/>
    <path d="M348.5,354.5h-.3c0,0,.2,0,.2,0,.3,0,.7,0,1,0h-1Z" fill="url(#linear-gradient24)"/>
    <path d="M413.5,442.1s0,0,0,0c0,0,0,0,0,0Z" fill="url(#linear-gradient25)"/>
    <path d="M365.5,348.4s0,0,.1-.1h-.6c0,0,0,0,0,0,.2,0,.3,0,.5,0Z" fill="url(#linear-gradient26)"/>
    <path d="M338.4,343.4c0,0-.1,0-.2-.1,0,0,.1.1.2.1Z" fill="url(#linear-gradient27)"/>
    <path d="M336.2,306h.1s0,0-.1,0Z" fill="url(#linear-gradient28)"/>
    <path d="M344.6,349c0-.1,0-.2,0-.3,0,0,0,.2,0,.3Z" fill="url(#linear-gradient29)"/>
    <path d="M341.5,346.5s0,0,0,0c0,0-.1-.1-.2-.2,0,0,0,.2,0,.2Z" fill="url(#linear-gradient30)"/>
    <path d="M341.2,331.2h-.3c0,0,.2,0,.3,0Z" fill="url(#linear-gradient31)"/>
    <path d="M351,350.7c0,0,0,.1,0,.2,0,0,0-.1,0-.2Z" fill="url(#linear-gradient32)"/>
    <path d="M410.2,430.7c0,0,0,.2,0,.3,0,0,0-.2,0-.3Z" fill="url(#linear-gradient33)"/>
    <path d="M379.9,375.7l.2.4c0-.2,0-.3-.2-.4Z" fill="url(#linear-gradient34)"/>
    <path d="M407.9,426.3h0s0,0-.1,0h.1Z" fill="url(#linear-gradient35)"/>
    <path d="M394.9,398.7c0,.2-.1.3-.2.5.1-.1.2-.3.2-.5Z" fill="url(#linear-gradient36)"/>
    <path d="M389.1,380.1s0,0,0,0c0,0,0,0,.1,0h-.1Z" fill="url(#linear-gradient37)"/>
    <path d="M382.2,369.1c0,0-.2,0-.3-.1,0,0,.2.1.3.1Z" fill="url(#linear-gradient38)"/>
    <path d="M378.4,372.6c0,0-.2,0-.3-.1h.3Z" fill="url(#linear-gradient39)"/>
    <path d="M374.2,358.2l-.5-.3c.2.2.3.3.5.3Z" fill="url(#linear-gradient40)"/>
    <path d="M378.6,370.7c0,0-.2,0-.2,0,0,0,.2,0,.2,0Z" fill="url(#linear-gradient41)"/>
    <path d="M407.6,436.9s0,0,0,0h-.2c0,.1.2,0,.2,0Z" fill="url(#linear-gradient42)"/>
    <path d="M410.4,436.5c.1.1.2.2.4.3,0-.2-.2-.3-.4-.3Z" fill="url(#linear-gradient43)"/>
    <path d="M397.9,441.2c.2,0,.3,0,.5,0-.1,0-.3,0-.5,0Z" fill="url(#linear-gradient44)"/>
    <path d="M382.7,413.1c0-.1.1-.2.1-.3-.2.2-.2.2-.1.3Z" fill="url(#linear-gradient45)"/>
    <path d="M401.9,442.2h0s0,0,.1,0h-.1Z" fill="url(#linear-gradient46)"/>
    <path d="M355.5,372.3h-.4c.2.1.4,0,.4,0Z" fill="url(#linear-gradient47)"/>
    <path d="M405.8,437.9h0s0,0,0,0Z" fill="url(#linear-gradient48)"/>
    <path d="M357.5,376.1s0,0,0,0c0,0,0,0,0,0Z" fill="url(#linear-gradient49)"/>
    <path d="M378.1,362.2s0,0,.1-.1c0,0-.1,0-.1.1Z" fill="url(#linear-gradient50)"/>
    <path d="M357.6,376s0,0,0,0c0,0,0,0,0,0Z" fill="url(#linear-gradient51)"/>
    <path d="M371.2,391.5s.1-.2.2-.4c-.1,0-.2.1-.2.4Z" fill="url(#linear-gradient52)"/>
    <path d="M370.6,386.9s0,0,0-.1h0Z" fill="url(#linear-gradient53)"/>
    <path d="M400.2,403.4c0-.2-.2-.3-.3-.4,0,.1.1.3.3.4Z" fill="url(#linear-gradient54)"/>
    <path d="M357.4,376.1c-.1,0-.3,0-.4,0,.2,0,.3,0,.4,0Z" fill="url(#linear-gradient55)"/>
    <path d="M378.9,393.4c0,0-.1,0-.2,0,0,0,0,0,0,0h.2Z" fill="url(#linear-gradient56)"/>
    <path d="M378.9,395.9c-.1,0-.2,0-.4,0,.1.1.2.1.4,0Z" fill="url(#linear-gradient57)"/>
    <path d="M381,403.5c0,0,.2.1.3.2,0,0-.2-.1-.3-.2Z" fill="url(#linear-gradient58)"/>
    <path d="M395.3,418.1c0-.1,0-.2-.2-.3,0,0-.1,0-.1,0,0,.1.2.2.3.3Z" fill="url(#linear-gradient59)"/>
    <path d="M382,395.2c-.2,0-.4,0-.5,0,.1,0,.3,0,.5,0Z" fill="url(#linear-gradient60)"/>
    <path d="M393.9,420.7s0,0,0,0c0,0,0,0,0,0Z" fill="url(#linear-gradient61)"/>
    <path d="M321.9,293.2c-.2,0-.3.1-.4.1.2,0,.3,0,.4-.1Z" fill="url(#linear-gradient62)"/>
    <path d="M367.8,373c0,0,0,.2,0,.2v-.2Z" fill="url(#linear-gradient63)"/>
    <path d="M360.5,358.5c0,.2.1.4.2.6,0,0,0,0,0,0-.1-.2-.2-.4-.1-.5Z" fill="url(#linear-gradient64)"/>
    <path d="M371.4,356.1s0,0,0,0c0,0,0,0,0,0h0Z" fill="url(#linear-gradient65)"/>
    <path d="M397,398.8h-.3s.3,0,.3,0Z" fill="url(#linear-gradient66)"/>
    <path d="M382.9,401.2c0,0-.1-.1-.3-.2,0,0,.2.1.3.2Z" fill="url(#linear-gradient67)"/>
    <path d="M389.4,379c0,0,.1.2.2.3,0-.2-.1-.2-.2-.3Z" fill="url(#linear-gradient68)"/>
    <path d="M369.6,393c0-.1,0-.2-.1-.4,0,.2,0,.3.1.4Z" fill="url(#linear-gradient69)"/>
    <path d="M368.7,379.8c.1,0,.3,0,.4,0-.1,0-.2,0-.4,0Z" fill="url(#linear-gradient70)"/>
    <path d="M380.8,362.3h0c0,0,0,0,0,0Z" fill="url(#linear-gradient71)"/>
    <path d="M361.1,335.8c0,.2,0,.3.2.5,0-.2-.1-.3-.2-.5Z" fill="url(#linear-gradient72)"/>
    <path d="M354.1,316.5l.4.7c0-.3-.2-.5-.4-.7Z" fill="url(#linear-gradient73)"/>
    <path d="M347.6,314c0,0-.2-.2-.2-.3,0,.2.2.2.2.3Z" fill="url(#linear-gradient74)"/>
    <path d="M338.3,339c-.2,0-.4,0-.6,0,.2.1.4.1.6,0Z" fill="url(#linear-gradient75)"/>
    <path d="M338.9,326.6l-.4-.3c0,.1.1.2.4.3Z" fill="url(#linear-gradient76)"/>
    <path d="M339.1,325.3s0,0-.1.2c0,0,.1,0,.1-.2Z" fill="url(#linear-gradient77)"/>
    <path d="M318.1,292c0,0-.2,0-.3,0,0,0,.2,0,.3,0Z" fill="url(#linear-gradient78)"/>
    <g>
      <path d="M222.2,481.3h8.1l-20.3,43.7-20.2-43.7h8l12.2,29.1,12.2-29.1Z" fill="#fff"/>
      <path d="M256.9,481.3v41.4h-7.1v-41.4h7.1Z" fill="#fff"/>
      <path d="M308.8,481.3h8.1l-20.3,43.7-20.2-43.7h8l12.2,29.1,12.2-29.1Z" fill="#fff"/>
      <path d="M343.5,481.3v41.4h-7.1v-41.4h7.1Z" fill="#fff"/>
      <path d="M374.6,481.3v41.4h-7.2v-41.4h7.2ZM371.7,522.7v-6.6h8.9c2,0,3.9-.3,5.7-.9,1.7-.6,3.2-1.5,4.5-2.7,1.3-1.2,2.3-2.6,3-4.4.7-1.8,1.1-3.8,1.1-6.1s-.4-4.4-1.1-6.1c-.7-1.8-1.7-3.3-3-4.4-1.3-1.2-2.8-2.1-4.5-2.7-1.7-.6-3.6-.9-5.7-.9h-8.9v-6.6h9c4.2,0,7.9.9,11.1,2.6,3.2,1.7,5.7,4.1,7.5,7.2,1.8,3.1,2.7,6.7,2.7,10.9s-.9,7.8-2.7,10.9c-1.8,3.1-4.3,5.5-7.5,7.2-3.2,1.7-6.9,2.6-11.1,2.6h-9Z" fill="#fff"/>
      <path d="M427.2,481.3v41.4h-3.3v-41.4h3.3ZM425.8,481.3h7.9c2.6,0,4.9.5,6.9,1.5,2,1,3.6,2.4,4.8,4.2,1.2,1.8,1.8,4,1.8,6.6s-.6,4.7-1.8,6.6c-1.2,1.9-2.8,3.3-4.8,4.2-2,1-4.3,1.4-6.9,1.4h-7.9v-3.1h7.9c3,0,5.5-.8,7.4-2.4,1.9-1.6,2.8-3.8,2.8-6.8s-.9-5.3-2.8-6.8c-1.9-1.6-4.4-2.3-7.4-2.3h-7.9v-3.1Z" fill="#fff"/>
      <path d="M472.7,481.3v41.4h-3.3v-41.4h3.3Z" fill="#fff"/>
      <path d="M522.1,481.3l-12.2,19.7,13.1,21.7h-3.9l-10.9-18.8-11.2,18.8h-3.9l13.4-21.7-11.9-19.7h3.9l9.8,16.8,9.9-16.8h3.9Z" fill="#fff"/>
      <path d="M546.8,481.3v41.4h-3.3v-41.4h3.3ZM545.3,481.3h20.5v3.1h-20.5v-3.1ZM545.3,498.5h19.3v3.1h-19.3v-3.1ZM545.3,519.6h20.5v3.1h-20.5v-3.1Z" fill="#fff"/>
      <path d="M593.2,481.3v38.3h17.1v3.1h-20.3v-41.4h3.3Z" fill="#fff"/>
    </g>
  </g>
</svg>